<svg width="117" height="46" viewBox="0 0 117 46" fill="none" xmlns="http://www.w3.org/2000/svg">
<path d="M45.6912 45.4128L0 45.4176V0H45.6912V45.4128Z" fill="#FEFEFE"/>
<path d="M96.1009 14.7936C98.0401 15.384 99.6049 17.1312 99.6529 19.1328C99.7873 21.1536 98.7745 22.9824 97.0177 23.9808C95.8801 24.624 94.6417 24.9504 93.2977 24.9552L84.4033 24.9696V5.70715L92.7985 5.72155C94.2433 5.72155 95.5393 6.15355 96.7057 6.95035C98.3953 8.16956 99.1537 10.3248 98.4577 12.3072C98.0593 13.4496 97.1857 14.2848 96.1009 14.7888V14.7936Z" fill="#FEFEFE"/>
<path d="M75.7487 20.5776H68.3087L66.6575 24.9696L62.2559 24.9648L69.6815 5.70719L74.3663 5.70239L81.7919 24.9648L77.3855 24.9696L75.7487 20.5776Z" fill="#FEFEFE"/>
<path d="M109.09 25.3681C107.429 25.4209 105.898 25.1281 104.434 24.4465C103.291 23.9569 102.278 23.2705 101.467 22.3585L104.222 19.6033C105.715 21.3169 107.99 21.9985 110.174 21.5041C110.904 21.3361 111.509 20.8561 111.778 20.1649C112.013 19.5649 111.955 18.8545 111.48 18.4081C111.053 18.0049 110.53 17.7217 109.978 17.5249L107.294 16.5649C105.47 15.9121 103.886 15.1489 102.85 13.4209C102.504 12.8449 102.384 12.2161 102.317 11.5537C102.115 9.60006 102.974 7.74246 104.592 6.63366C106.618 5.25126 109.099 5.05446 111.475 5.53446C113.102 5.92806 114.566 6.69126 115.762 7.90086L113.021 10.6657C112.291 9.87846 111.389 9.36006 110.362 9.09606C109.555 8.97126 108.754 8.98086 107.971 9.18726C107.237 9.37926 106.685 9.94566 106.579 10.6849C106.488 11.3089 106.733 11.8705 107.246 12.2209C107.798 12.5953 108.379 12.8641 109.013 13.0897L111.931 14.1169C113.002 14.4913 113.952 15.0865 114.749 15.8641C115.603 16.6993 116.059 17.6881 116.16 18.8689C116.501 22.8913 112.92 25.3633 109.09 25.3585V25.3681Z" fill="#FEFEFE"/>
<path d="M61.5647 21.1248L61.5695 24.9696L48.5087 24.9648L48.5039 5.70715H52.6319L52.6271 21.1248H61.5647Z" fill="#FEFEFE"/>
<path d="M70.4112 32.6831H59.9136V43.1759H70.4112V32.6831Z" fill="url(#paint0_linear_252_471)"/>
<path d="M56.0881 38.0352L48.8257 43.5984V32.4624L56.0881 38.0352Z" fill="#FEFEFE"/>
<path d="M85.4209 35.5151C85.6657 36.1343 85.8241 36.7823 85.8529 37.4543C85.8385 37.6079 85.7281 37.6799 85.5217 37.6655L80.9473 37.7183C80.5777 37.7711 80.2033 37.8095 79.8241 37.8287L77.1457 37.8431C76.4689 37.9295 75.7825 37.9487 75.0865 37.9007C75.0961 38.1071 75.0433 38.2319 74.9233 38.2751C74.8033 37.4495 74.9137 36.6047 75.1777 35.8223L75.2785 35.6975C78.6241 35.6063 81.9697 35.5103 85.3153 35.4143L85.4257 35.5103L85.4209 35.5151Z" fill="#068E76"/>
<path d="M85.848 37.4592C85.872 38.0784 85.7712 38.688 85.6032 39.2736L85.4544 39.3936C82.2768 39.48 79.1088 39.5664 75.9408 39.6576C75.7392 39.6912 75.5376 39.7152 75.3312 39.7344L75.2256 39.6C75.0768 39.1824 74.8848 38.736 74.9184 38.2848L74.952 37.7808L76.6224 37.8096L77.136 37.728L79.8192 37.7136C80.0016 37.7136 80.1936 37.6224 80.3856 37.6704C80.592 37.7184 80.7792 37.6032 80.9616 37.5984L83.496 37.5648L85.4688 37.5456C85.6224 37.5456 85.7472 37.512 85.8528 37.4592H85.848Z" fill="#059376"/>
<path d="M85.6032 39.2735C85.368 40.0847 84.912 40.7951 84.3504 41.3999L84.1488 41.4767C82.9056 41.4959 81.6672 41.5103 80.4288 41.5199L80.0544 41.6063L76.6032 41.6447C76.0032 41.0783 75.504 40.3871 75.2256 39.5951C75.4704 39.6431 75.6912 39.5327 75.936 39.5279L78.1536 39.4799L79.1712 39.4271L81.8496 39.3599L84.504 39.3071C84.8832 39.2975 85.2384 39.2447 85.608 39.2735H85.6032Z" fill="#049877"/>
<path d="M85.4208 35.5153C85.2288 35.5969 85.0128 35.5729 84.7776 35.5777L82.272 35.6113L81.5088 35.6737L79.2097 35.7217L76.9441 35.7601C76.7521 35.7601 76.6177 35.7889 76.4113 35.7985L75.7392 35.8273H75.1729C75.4609 34.9777 75.9649 34.2673 76.5985 33.6577C76.8049 33.6049 77.0208 33.5761 77.2464 33.5713L83.2992 33.4129C83.5008 33.3361 83.688 33.3409 83.856 33.4273C84.5232 34.0177 85.0896 34.6849 85.416 35.5153H85.4208Z" fill="#088875"/>
<path d="M84.3502 41.4C82.291 43.6176 78.8062 43.728 76.603 41.6448C76.6078 41.6112 76.6126 41.5824 76.627 41.5632C76.6414 41.544 76.6942 41.5104 76.7422 41.5056L78.0862 41.496L80.0686 41.4816L80.3854 41.3952L82.4158 41.3808L83.467 41.352C83.7742 41.3424 84.0718 41.2992 84.355 41.4H84.3502Z" fill="#029F77"/>
<path d="M83.8562 33.432L83.309 33.5424L81.0386 33.5952L79.4594 33.648L77.2466 33.7008C77.021 33.7056 76.8097 33.7968 76.5938 33.6624C77.3473 32.9424 78.293 32.424 79.373 32.2416C80.9858 31.968 82.661 32.3808 83.8514 33.432H83.8562Z" fill="#098275"/>
<path d="M29.2464 29.5247C28.5696 29.6783 27.9216 29.6399 27.2448 29.6208C25.872 29.5872 24.6336 29.2223 23.4336 28.5935C21.96 27.8159 20.7408 26.7264 19.9152 25.2671C16.5312 25.7423 13.1712 24.5999 10.8528 22.2047C7.11356 18.3407 7.13276 12.2399 10.9248 8.41915C15.2688 4.04155 22.6704 4.30075 26.6496 8.99995C29.2272 12.0479 29.7168 16.3967 27.8448 19.9295C26.904 21.7055 25.392 23.0639 23.6112 24.0143C25.008 25.6751 27.1392 26.3999 29.2464 25.9391V29.5247Z" fill="#0A1628"/>
<path d="M31.032 24.9696C31.0176 22.44 31.7328 20.424 33.3552 18.5376C34.08 17.7216 34.8816 17.0592 35.784 16.4496L38.136 14.8512C38.7264 14.448 39.2304 14.0016 39.7008 13.464C40.368 12.6912 40.5888 11.6064 40.176 10.656C39.8064 9.80164 38.9664 9.29284 38.064 9.20164C37.368 9.11044 36.7008 9.21124 36.0912 9.54724C35.3088 9.99844 34.7232 10.6704 34.3296 11.5056L31.0416 9.84964C32.1984 6.96004 34.9968 5.18884 38.1024 5.30884C39.5232 5.36644 40.8672 5.66884 42.0528 6.46564C43.6848 7.50724 44.5871 9.24484 44.6496 11.1696C44.7023 12.8304 44.1552 14.3232 43.0224 15.5376C42.3648 16.2432 41.6304 16.8 40.8432 17.3664L38.1791 19.2768C37.4735 19.7808 36.888 20.3616 36.408 21.1296H44.6447V24.9744H31.032V24.9696Z" fill="#0A1628"/>
<path d="M37.5072 39.7632L32.8992 39.7584L31.7952 42.4608H30.6816L34.7088 32.736L35.688 32.7168L39.7248 42.4656H38.6112L37.5072 39.7632Z" fill="#0A1628"/>
<path d="M44.6306 42.456L43.6514 42.4656V35.808L44.6258 35.8032L44.6306 42.456Z" fill="#0A1628"/>
<path d="M43.992 32.9617C44.3568 32.8801 44.6784 33.1057 44.7408 33.4081C44.8128 33.7585 44.6304 34.0801 44.2512 34.1617C43.9728 34.2193 43.632 34.0609 43.5408 33.7297C43.4544 33.4273 43.5984 33.0481 43.992 32.9569V32.9617Z" fill="#0B1729"/>
<path d="M95.4048 19.0368C95.4192 20.496 94.3344 21.36 92.928 21.384H88.5312V16.7136H92.928C93.408 16.7568 93.864 16.8096 94.2576 17.0448C95.0016 17.4432 95.4 18.1632 95.4048 19.032V19.0368Z" fill="#0A1628"/>
<path d="M92.5824 13.1136L88.5312 13.1472V9.27844L92.5968 9.31204C93.6816 9.32164 94.4448 10.1904 94.4448 11.1984C94.4448 12.2208 93.7008 13.104 92.5824 13.1136Z" fill="#0A1628"/>
<path d="M74.3712 16.8576L69.6768 16.8528L72.024 10.4304L74.3712 16.8576Z" fill="#0A1628"/>
<path d="M23.1167 19.488C20.5727 22.3152 16.0703 22.176 13.6991 19.248C11.3279 16.32 12.0143 12.288 14.9759 10.2432C17.0687 8.79844 19.9199 8.79844 22.0175 10.224C25.0943 12.3168 25.6127 16.7184 23.1119 19.488H23.1167Z" fill="#FEFEFE"/>
<path d="M37.085 38.7792L33.3218 38.784L35.2034 34.2096L37.085 38.7792Z" fill="#FEFEFE"/>
<defs>
<linearGradient id="paint0_linear_252_471" x1="65.1612" y1="32.7647" x2="65.1612" y2="42.9275" gradientUnits="userSpaceOnUse">
<stop stop-color="#B8860C"/>
<stop offset="1" stop-color="#C8A74A"/>
</linearGradient>
</defs>
</svg>
