<svg width="36" height="36" viewBox="0 0 36 36" fill="none" xmlns="http://www.w3.org/2000/svg">
<rect width="36" height="36" rx="8" fill="#0A1628"/>
<path d="M11.7463 9.25418C12.5585 9.19612 13.5778 9.3313 14.3504 9.55571C16.246 10.1016 17.8554 11.3922 18.8291 13.1477C19.7572 14.8539 19.9901 16.8672 19.4773 18.7489C19.0503 20.2954 18.1208 21.6458 16.8429 22.576C16.5035 22.8268 16.204 23.0005 15.8414 23.2073C16.122 23.5657 16.4602 23.8725 16.8414 24.1141C17.7574 24.6918 18.892 24.9188 19.9419 24.661L19.9415 27.3014C19.4191 27.4827 18.1979 27.3983 17.6472 27.3059C17.4218 27.2681 17.1365 27.2002 16.9148 27.138C16.5133 27.0216 16.1622 26.852 15.7939 26.6596C14.6367 26.0552 13.8094 25.2681 13.1517 24.1202C12.9907 24.1684 12.7626 24.1974 12.5957 24.2095C10.5501 24.3472 8.5345 23.6491 6.98896 22.2674C5.56702 20.9931 4.6934 19.1941 4.55835 17.2622C4.41777 15.3041 5.05005 13.3702 6.31311 11.895C7.43029 10.601 8.93316 9.72221 10.5878 9.3954C10.9989 9.31329 11.3346 9.28182 11.7463 9.25418ZM12.3883 21.367C14.8819 21.2268 16.7921 19.0387 16.6541 16.4807C16.5161 13.9227 14.3821 11.9642 11.8886 12.1072C9.39698 12.25 7.48961 14.4372 7.62755 16.9932C7.76547 19.5493 9.8965 21.5072 12.3883 21.367Z" fill="#00A878"/>
<path d="M25.9088 9.25427C27.0738 9.2125 28.1089 9.38702 29.1248 10.0084C30.0764 10.5791 30.7619 11.5212 31.0243 12.6195C31.1718 13.2239 31.1931 13.9437 31.0997 14.559C30.6903 17.2577 27.982 18.3106 26.1787 19.8851C25.7905 20.224 25.4137 20.608 25.1489 21.0592L31.1542 21.058C31.1625 21.4019 31.1547 21.7847 31.1548 22.132L31.1535 23.9188L24.0436 23.9181L21.2652 23.9182C21.2396 21.4528 22.182 19.6006 24.052 18.0605C24.365 17.8028 24.6831 17.5942 25.0151 17.366C25.3856 17.1121 25.7546 16.8557 26.122 16.597C26.7186 16.1765 27.514 15.5754 27.8538 14.9177C28.3312 13.9937 28.0241 12.7992 27.0836 12.3337C26.5619 12.0754 25.8324 12.0313 25.2908 12.227C24.5446 12.4966 23.9961 13.139 23.6532 13.8463C23.3993 13.7311 23.0712 13.5494 22.8177 13.4186L21.2664 12.6227C21.4732 12.0843 21.8221 11.5167 22.1884 11.0796C22.9229 10.2057 23.9175 9.6044 25.0186 9.36854C25.3321 9.3018 25.5935 9.27854 25.9088 9.25427Z" fill="#FFC918"/>
</svg>
